<svg xmlns="http://www.w3.org/2000/svg" viewBox="0 0 360 480" role="img" aria-label="Glenn portrait"><defs><linearGradient id="bg" x1="0" y1="0" x2="1" y2="1"><stop stop-color="#241b32"/><stop offset="1" stop-color="#0a0a12"/></linearGradient><linearGradient id="coat" x1="0" y1="0" x2="0" y2="1"><stop stop-color="#3d334f"/><stop offset="1" stop-color="#17141e"/></linearGradient><linearGradient id="skin" x1="0" y1="0" x2="0" y2="1"><stop stop-color="#d7b2a4"/><stop offset="1" stop-color="#9a6c63"/></linearGradient></defs><rect width="360" height="480" rx="28" fill="url(#bg)"/><circle cx="278" cy="92" r="74" fill="#9357d9" opacity=".08"/><path d="M61 480c12-111 57-165 119-165 65 0 111 55 119 165" fill="url(#coat)"/><ellipse cx="181" cy="196" rx="79" ry="103" fill="url(#skin)"/><path d="M102 175c4-76 39-120 93-120 49 0 86 35 91 98-22-19-50-30-82-27-32 2-57 17-80 35-2 24-10 44-22 59z" fill="#1d1b23"/><path d="M116 121c18-42 48-63 92-62-18 10-30 22-40 38-21 2-36 10-52 24z" fill="#2b2933"/><path d="M139 174c9-5 20-5 30-1M198 173c10-4 21-3 31 2" fill="none" stroke="#2c2326" stroke-width="6" stroke-linecap="round"/><ellipse cx="150" cy="196" rx="8" ry="11" fill="#6e4ba7"/><ellipse cx="216" cy="196" rx="8" ry="11" fill="#6e4ba7"/><path d="M170 224c8 3 17 3 24 0" fill="none" stroke="#704c4f" stroke-width="5" stroke-linecap="round"/><path d="M151 263c19 5 39 5 59 0" fill="none" stroke="#7e5557" stroke-width="4" stroke-linecap="round"/><path d="M147 315l34 31 34-31-12-42h-46z" fill="#b88779"/><path d="M95 398l49-70 37 23 35-23 51 70-18 82H111z" fill="#22212b"/><path d="M114 392h134M143 348l38 40 37-40" fill="none" stroke="#7b6a93" stroke-width="7" opacity=".55"/><path d="M168 348h26l7 88-20 19-20-19z" fill="#5b367f"/><path d="M104 322l24 14-20 34" fill="#6f2442" opacity=".75"/><path d="M258 66l11 22 24 4-18 17 4 24-21-12-22 12 5-24-19-17 25-4z" fill="#a060e0" opacity=".16"/></svg>